<svg aria-hidden="true" style="position: absolute; width: 0; height: 0; overflow: hidden;" version="1.1" xmlns="http://www.w3.org/2000/svg" xmlns:xlink="http://www.w3.org/1999/xlink">
<defs>
<symbol id="icon-facebook" viewBox="0 0 32 32">
<path d="M28.8 16.507c0-7.113-5.731-12.878-12.8-12.878s-12.8 5.766-12.8 12.878c0 6.428 4.681 11.756 10.8 12.722v-8.999h-3.25v-3.723h3.25v-2.837c0-3.228 1.911-5.010 4.835-5.010 1.401 0 2.865 0.252 2.865 0.252v3.169h-1.614c-1.59 0-2.086 0.993-2.086 2.011v2.416h3.55l-0.567 3.723h-2.983v8.999c6.119-0.966 10.8-6.294 10.8-12.722z"></path>
</symbol>
<symbol id="icon-logo" viewBox="0 0 108 32">
<path d="M18.908 1.101c0.478 0.237 1.015 0.919 1.375 1.321 3.094 3.456 4.716 7.858 4.429 12.491-0.278 4.484-2.492 8.465-5.816 11.408-0.629-0.43-1.205-1.043-1.709-1.612-2.823-3.193-4.371-7.68-4.101-11.936 0.278-4.388 2.521-8.779 5.821-11.672z"></path>
<path d="M32.075 7.376c0.009 0.016 0.020 0.030 0.028 0.047 0.176 0.359 0.227 0.927 0.272 1.325 0.233 2.069 0.040 4.144-0.688 6.104-1.818 4.895-6.021 8.499-10.669 10.635-0.055-0.001-0.018 0.004-0.102-0.045 0.284-0.465 0.68-0.88 1.008-1.316 0.501-0.682 0.955-1.396 1.359-2.139 1.424-2.62 2.104-5.5 2.102-8.471-0-0.844-0.020-1.687-0.264-2.501 0.436-0.484 0.97-0.891 1.488-1.284 1.671-1.264 3.354-2.144 5.466-2.355z"></path>
<path d="M5.684 7.397c0.251 0.010 0.504 0.042 0.752 0.080 1.909 0.29 3.579 1.307 5.071 2.484 0.416 0.328 0.872 0.671 1.185 1.102-0.793 4.074 0.259 8.345 2.365 11.868 0.336 0.56 0.7 1.103 1.089 1.628 0.186 0.25 0.407 0.477 0.574 0.74l-0.059 0.077c-3.473-1.485-6.727-4.114-8.82-7.255-2.196-3.296-2.922-6.846-2.157-10.723z"></path>
<path d="M35.472 16.487c0.554-0.066 1.795-0.136 2.259 0.16 0.023 0.070 0.030 0.077 0.033 0.162 0.009 0.325-0.203 0.811-0.313 1.114-0.736 2.091-1.998 3.959-3.662 5.424-3.259 2.881-7.483 3.915-11.749 3.641-0.806-0.084-1.636-0.14-2.411-0.387 3.574-1.099 6.974-3.345 9.437-6.15 0.606-0.69 1.049-1.49 1.639-2.184 1.118-1.316 3.146-1.664 4.767-1.779z"></path>
<path d="M1.327 16.596c1.666-0.196 3.926 0.078 5.298 1.115 0.816 0.617 1.307 1.762 1.981 2.541 2.108 2.441 4.748 4.366 7.717 5.626 0.632 0.271 1.283 0.553 1.952 0.718l-1.336 0.223c-3.891 0.56-7.924-0.135-11.254-2.3-2.267-1.475-3.864-3.497-4.803-6.019-0.138-0.37-0.344-0.771-0.415-1.157-0.041-0.225-0.005-0.373 0.127-0.564 0.209-0.154 0.481-0.152 0.733-0.183z"></path>
<path d="M69.289 13.234c1.297-0.011 2.712-0.127 3.993 0.060 0.824 0.12 1.661 0.415 2.162 1.121 0.368 0.52 0.489 1.251 0.375 1.873-0.14 0.761-0.622 1.2-1.233 1.61 0.147 0.062 0.291 0.129 0.431 0.204 0.539 0.292 0.921 0.798 1.079 1.388 0.216 0.806 0.043 1.636-0.359 2.351-0.090 0.137-0.197 0.258-0.316 0.371-1.231 1.167-3.929 0.941-5.52 0.926-0.306-0.003-0.709 0.025-0.937-0.207-0.055-0.117-0.077-0.194-0.085-0.325-0.105-1.708-0.009-3.481-0.010-5.195-0.001-1.214-0.122-2.794 0.036-3.967 0.122-0.153 0.2-0.152 0.384-0.209zM73.634 19.241c-0.687-0.448-1.844-0.319-2.641-0.317l0.002 2.214c0.884 0.006 1.916 0.143 2.7-0.331 0.185-0.272 0.37-0.676 0.316-1.015-0.039-0.246-0.173-0.417-0.377-0.55zM73.306 15.305c-0.655-0.394-1.575-0.294-2.312-0.29v2.125c0.791 0.006 1.734 0.123 2.425-0.324 0.186-0.266 0.365-0.648 0.295-0.984-0.051-0.247-0.198-0.401-0.408-0.527z"></path>
<path d="M57.197 15.534c0.198-0.016 0.397-0.006 0.591 0.031 0.593 0.119 0.883 0.556 1.2 1.021 0.018-0.163 0.031-0.339 0.069-0.498 0.039-0.166 0.13-0.268 0.279-0.348 0.24-0.127 0.754-0.136 1.005-0.043 0.183 0.068 0.387 0.227 0.45 0.419 0.187 0.567 0.114 6.116 0.006 6.875-0.071 0.5-0.226 0.993-0.479 1.431-0.407 0.707-1.099 1.168-1.876 1.379-1.096 0.296-2.343 0.202-3.321-0.388-0.436-0.263-0.641-0.6-0.756-1.087 0.037-0.176 0.080-0.347 0.231-0.461 0.49-0.37 1.549 0.251 2.092 0.352 0.468 0.087 0.973 0.039 1.363-0.255 0.642-0.484 0.748-1.379 0.857-2.116-0.43 0.459-0.838 0.829-1.471 0.984-0.686 0.169-1.438 0.053-2.029-0.339-0.777-0.515-1.211-1.399-1.37-2.296-0.194-1.092-0.025-2.399 0.638-3.314 0.632-0.871 1.5-1.192 2.521-1.349zM57.313 17.207c-0.511 0.193-0.794 0.429-1.012 0.939-0.27 0.626-0.278 1.533-0.014 2.161 0.139 0.331 0.418 0.68 0.77 0.799 0.232 0.078 0.513 0.044 0.751 0.028 0.421-0.15 0.66-0.328 0.86-0.736 0.307-0.628 0.317-1.513 0.083-2.169-0.136-0.381-0.405-0.755-0.786-0.92-0.195-0.084-0.44-0.112-0.651-0.101z"></path>
<path d="M99.652 15.593c0.502-0.067 0.996-0.044 1.47 0.152 0.655 0.271 0.995 0.765 1.254 1.395 0.133-0.333 0.279-0.668 0.514-0.944 0.372-0.437 0.859-0.611 1.422-0.633 0.649-0.025 1.314 0.124 1.791 0.59 0.313 0.307 0.505 0.718 0.61 1.139 0.279 1.121 0.123 3.53 0.127 4.797 0.001 0.194 0.025 0.807-0.127 0.922-0.258 0.194-1.172 0.151-1.494 0.106-0.188-0.026-0.304-0.127-0.381-0.297-0.119-0.262-0.055-0.73-0.052-1.020 0.012-0.94 0.244-3.537-0.312-4.222-0.128-0.157-0.309-0.256-0.513-0.27-0.299-0.021-0.68 0.082-0.898 0.296-0.771 0.755-0.515 3.44-0.509 4.496 0.002 0.213 0.009 0.446-0.017 0.658-0.012 0.094-0.044 0.202-0.13 0.251-0.329 0.188-1.128 0.16-1.49 0.076-0.189-0.044-0.269-0.108-0.337-0.291-0.112-0.304-0.049-0.753-0.044-1.074 0.017-0.942 0.24-3.283-0.239-3.989-0.144-0.212-0.358-0.341-0.61-0.382-0.286-0.047-0.584-0.009-0.818 0.175-0.937 0.74-0.681 3.332-0.676 4.403 0.001 0.257 0.054 0.626-0.006 0.867-0.024 0.1-0.054 0.162-0.14 0.218-0.301 0.198-1.118 0.155-1.478 0.084-0.152-0.030-0.248-0.123-0.314-0.26-0.092-0.195-0.12-5.828-0.085-6.386 0.009-0.155 0.042-0.321 0.113-0.461 0.092-0.179 0.245-0.296 0.433-0.357 0.446-0.144 1.002 0.015 1.396 0.234 0.095 0.352 0.027 0.813 0.012 1.18 0.046-0.094 0.093-0.187 0.141-0.279 0.348-0.672 0.675-0.946 1.385-1.172z"></path>
<path d="M91.546 15.622c2.075-0.043 3.799 1.59 3.867 3.665s-1.543 3.817-3.616 3.911c-1.364 0.062-2.656-0.614-3.383-1.77s-0.774-2.614-0.126-3.815c0.648-1.202 1.893-1.963 3.258-1.991zM91.291 17.271c-0.557 0.248-0.86 0.532-1.076 1.114-0.258 0.696-0.216 1.669 0.114 2.334 0.178 0.358 0.455 0.649 0.84 0.777 0.264 0.088 0.51 0.102 0.78 0.039 0.534-0.224 0.854-0.509 1.074-1.056 0.275-0.686 0.272-1.604-0.044-2.276-0.198-0.421-0.55-0.768-1.001-0.901-0.221-0.065-0.46-0.051-0.686-0.030z"></path>
<path d="M49.542 15.633c2.088-0.094 3.858 1.52 3.955 3.607s-1.514 3.861-3.601 3.961c-2.092 0.1-3.868-1.515-3.966-3.608s1.52-3.867 3.613-3.961zM50.132 17.321c-0.242-0.083-0.491-0.082-0.741-0.050-0.559 0.276-0.879 0.565-1.092 1.176-0.241 0.692-0.206 1.68 0.142 2.33 0.19 0.355 0.477 0.614 0.865 0.733 0.238 0.073 0.508 0.079 0.75 0.021 0.533-0.221 0.846-0.508 1.060-1.055 0.272-0.693 0.249-1.608-0.065-2.285-0.185-0.398-0.499-0.726-0.919-0.87z"></path>
<path d="M83.056 15.675c1.345-0.217 2.702 0.305 3.555 1.366s1.071 2.5 0.569 3.766c-0.503 1.266-1.646 2.165-2.995 2.354-2.055 0.288-3.958-1.134-4.268-3.185s1.091-3.97 3.139-4.301zM83.365 17.267c-0.561 0.239-0.884 0.51-1.111 1.091-0.266 0.681-0.24 1.625 0.075 2.288 0.19 0.399 0.514 0.728 0.941 0.864 0.214 0.068 0.457 0.067 0.677 0.040 0.56-0.236 0.886-0.501 1.118-1.082 0.269-0.676 0.265-1.608-0.049-2.269-0.186-0.392-0.504-0.723-0.919-0.87-0.234-0.083-0.488-0.082-0.733-0.061z"></path>
<path d="M64.132 15.597c0.474-0.056 0.931-0.047 1.397 0.061 0.709 0.164 1.303 0.577 1.665 1.213 0.193 0.34 0.305 0.715 0.359 1.101 0.083 0.598 0.13 4.376-0.006 4.896-0.114 0.146-0.229 0.198-0.406 0.236-0.303 0.064-0.967 0.103-1.212-0.124-0.214-0.198-0.17-0.611-0.173-0.877-0.355 0.525-0.713 0.948-1.359 1.11-0.722 0.18-1.391-0.031-2.013-0.39-0.265-0.244-0.466-0.494-0.58-0.84-0.192-0.584-0.13-1.372 0.169-1.91 0.725-1.305 2.434-1.227 3.684-1.595l0.078-0.024c-0.050-0.156-0.099-0.316-0.164-0.466-0.707-1.63-2.47 0.151-3.322-0.297-0.172-0.090-0.296-0.274-0.34-0.46-0.058-0.248 0.009-0.408 0.144-0.614 0.458-0.698 1.316-0.874 2.080-1.020zM65.651 19.953c-0.52 0.143-1.494 0.3-1.804 0.771-0.101 0.154-0.109 0.356-0.044 0.525 0.046 0.119 0.137 0.224 0.216 0.322 0.537 0.036 0.873-0.003 1.284-0.376 0.249-0.227 0.477-0.591 0.465-0.943-0.003-0.087-0.028-0.176-0.048-0.26l-0.070-0.040z"></path>
<path d="M42.942 17c0.186-0.591 1.634-3.42 2.095-3.685 0.24-0.138 1.519-0.159 1.776-0.041 0.165 0.076 0.183 0.12 0.257 0.274-0.132 0.732-1.75 3.19-2.228 3.991l-0.841 1.398c0.003 0.84 0.151 3.406-0.142 4.014-0.103 0.079-0.176 0.122-0.304 0.152-0.395 0.092-1.18 0.065-1.528-0.154-0.269-0.355-0.129-3.3-0.128-3.951-0.43-0.687-3.204-5.116-3.131-5.539 0.092-0.132 0.151-0.165 0.299-0.223 0.468-0.014 1.419-0.138 1.806 0.097 0.502 0.305 1.881 3.045 2.068 3.668z"></path>
<path d="M77.294 13.234c0.491-0.013 1.294-0.135 1.717 0.118 0.119 0.808 0.072 1.664 0.074 2.479l0.005 3.776c0 0.986 0.108 2.172-0.019 3.14-0.025 0.193-0.144 0.256-0.284 0.366-0.511 0.017-1.298 0.143-1.719-0.189-0.099-0.378-0.161-9.095-0.066-9.439 0.045-0.163 0.153-0.182 0.291-0.252z"></path>
<path d="M19.109 26.86c0.677 0.241 1.358 0.433 2.068 0.549 1.224 0.198 2.645 0.14 3.744 0.778 0.812 0.471 1.643 1.573 1.872 2.487 0.042 0.168 0.030 0.181-0.056 0.32-0.85 0.306-1.675 0.233-2.52-0.044-2.036-0.666-4.112-2.15-5.109-4.090z"></path>
<path d="M18.726 26.865c0.043-0.004 0.084 0.019 0.126 0.031-0.002 0.019-0.002 0.039-0.006 0.059-0.105 0.433-1.781 2.2-2.168 2.507-1.338 1.056-3.324 1.895-5.050 1.689-0.046-0.010-0.11-0.023-0.152-0.042-0.093-0.043-0.152-0.077-0.176-0.178-0.065-0.27 0.088-0.583 0.211-0.818 0.395-0.756 1.014-1.642 1.79-2.051 0.956-0.503 2.368-0.501 3.43-0.69 0.681-0.121 1.336-0.306 1.996-0.507z"></path>
</symbol>
<symbol id="icon-menu" viewBox="0 0 32 32">
<path d="M5.333 8h21.333v2.667h-21.333v-2.667zM5.333 14.667h21.333v2.667h-21.333v-2.667zM5.333 21.333h21.333v2.667h-21.333v-2.667z"></path>
</symbol>
<symbol id="icon-x" viewBox="0 0 32 32">
<path d="M21.589 8.459l-5.657 5.656-5.656-5.656-1.885 1.885 5.656 5.656-5.656 5.656 1.885 1.885 5.656-5.656 5.657 5.656 1.885-1.885-5.656-5.656 5.656-5.656-1.885-1.885z"></path>
</symbol>
<symbol id="icon-youtube" viewBox="0 0 31 32">
<path d="M27.639 9.978c-0.146-0.541-0.431-1.034-0.826-1.431s-0.888-0.683-1.429-0.83c-2.004-0.55-10.024-0.559-10.024-0.559s-8.018-0.009-10.024 0.517c-0.54 0.154-1.032 0.444-1.428 0.842s-0.683 0.892-0.833 1.433c-0.529 2.004-0.534 6.162-0.534 6.162s-0.005 4.178 0.52 6.162c0.294 1.097 1.158 1.964 2.257 2.259 2.025 0.55 10.022 0.559 10.022 0.559s8.019 0.009 10.024-0.516c0.541-0.147 1.034-0.432 1.431-0.828s0.683-0.888 0.831-1.429c0.53-2.003 0.534-6.159 0.534-6.159s0.026-4.179-0.521-6.184zM12.795 19.965l0.006-7.68 6.665 3.846-6.671 3.834z"></path>
</symbol>
<symbol id="icon-check_mark" viewBox="0 0 48 32">
<path d="M4.020 4.020l-2.82 2.82 22.8 22.8 22.8-22.8-5.64-5.64-17.16 17.16-17.16-17.16-2.82 2.82z"></path>
</symbol>
<symbol id="icon-cloc" viewBox="0 0 32 32">
<path d="M14.96 0.032c-4.246 0.341-7.883 2.090-10.742 5.168-2.174 2.341-3.547 5.243-4.072 8.613-0.163 1.045-0.163 3.33 0 4.374 0.598 3.842 2.27 7.021 5.038 9.582 2.378 2.198 5.25 3.558 8.629 4.085 1.045 0.163 3.33 0.163 4.374 0 3.379-0.526 6.306-1.914 8.626-4.086 2.816-2.638 4.44-5.725 5.042-9.581 0.163-1.045 0.163-3.33 0-4.374-0.598-3.843-2.246-6.979-5.024-9.563-2.414-2.248-5.469-3.67-8.83-4.117-0.619-0.082-2.496-0.144-3.040-0.101zM17.813 3.334c1.84 0.277 3.749 1.003 5.211 1.982 1.97 1.318 3.392 2.931 4.435 5.030 0.917 1.845 1.309 3.536 1.309 5.653s-0.392 3.808-1.309 5.653c-1.371 2.76-3.645 4.925-6.4 6.099-1.49 0.66-3.228 1.045-5.056 1.045-3.547 0-6.756-1.448-9.069-3.784l-0.001-0.001c-1.942-1.955-3.179-4.438-3.608-7.251-0.13-0.85-0.13-2.67 0-3.52 0.43-2.826 1.677-5.322 3.635-7.28 2.15-2.149 4.947-3.44 8.080-3.726 0.485-0.045 2.229 0.018 2.773 0.101zM14.4 12.333v4.334l5.254 5.253 2.266-2.267-4.32-4.318v-7.334h-3.2v4.333z"></path>
</symbol>
<symbol id="icon-credit-card" viewBox="0 0 32 32">
<path d="M4.773 5.396c-0.963 0.184-1.841 1.068-2.048 2.060-0.083 0.399-0.083 16.689 0 17.088 0.209 1 1.064 1.855 2.064 2.064 0.4 0.083 22.021 0.083 22.421 0 1.028-0.242 1.822-1.036 2.060-2.045l0.004-0.019c0.083-0.399 0.083-16.689 0-17.088-0.185-0.887-0.845-1.636-1.745-1.98l-0.303-0.116-11.093-0.008c-6.889-0.004-11.195 0.012-11.36 0.044zM26.667 9.333v1.333h-21.333v-2.667h21.333v1.333zM26.667 20v4h-21.333v-8h21.333v4zM8 20v1.333h8v-2.667h-8v1.333z"></path>
</symbol>
<symbol id="icon-dandruff" viewBox="0 0 32 32">
<path d="M12.276 0.056c-3.358 0.31-6.315 1.815-8.486 4.079l-0.005 0.005c-2.006 2.080-3.197 4.514-3.661 7.486-0.118 0.748-0.133 2.872-0.027 3.547 0.283 1.794 0.694 3.092 1.43 4.507 1.879 3.537 5.18 6.108 9.12 6.968l0.090 0.016c1.189 0.253 2.934 0.342 4.131 0.212 2.461-0.287 4.671-1.181 6.531-2.527l-0.040 0.028 0.372-0.271 7.389 7.387 1.186-1.187 1.187-1.186-7.387-7.389 0.271-0.372c1.319-1.82 2.213-4.029 2.493-6.426l0.006-0.065c0.036-0.391 0.057-0.845 0.057-1.304 0-1-0.098-1.977-0.285-2.923l0.016 0.095c-0.429-2.014-1.373-4.034-2.611-5.585-1.913-2.403-4.568-4.104-7.461-4.785-1.238-0.291-3.126-0.428-4.317-0.312zM14.346 3.417c3.396 0.306 6.28 2.25 7.881 5.027l0.026 0.049c1.989 3.458 1.698 7.853-0.733 11.070-1.863 2.445-4.776 4.007-8.053 4.007-1.959 0-3.788-0.558-5.337-1.524l0.043 0.025c-1.618-1.027-2.906-2.443-3.751-4.121l-0.027-0.059c-1.671-3.444-1.267-7.463 1.063-10.558 0.563-0.696 1.178-1.311 1.851-1.856l0.023-0.018c2.063-1.551 4.527-2.27 7.013-2.041z"></path>
</symbol>
<symbol id="icon-left_arrow" viewBox="0 0 32 32">
<path d="M10.56 11.547l-4.453 4.453 8.933 8.933 1.893-1.893-5.707-5.707h12.773v-2.667h-12.773l5.733-5.735-0.92-0.919c-0.507-0.507-0.945-0.92-0.975-0.92-0.028 0-2.056 2.004-4.505 4.453z"></path>
</symbol>
<symbol id="icon-logo_relume" viewBox="0 0 115 32">
<path d="M12.52 0.757c-1.251 0.568-10.834 6.142-11.347 6.6-0.251 0.224-0.616 0.753-0.81 1.175-0.323 0.699-0.355 1.363-0.358 7.451l-0.004 6.685 0.509 0.936c0.591 1.085 0.475 1.006 7.159 4.891l4.888 2.842 2.685 0.009 5.463-3.136c5.736-3.293 6.648-3.984 7.059-5.354 0.154-0.515 0.226-2.763 0.224-7.060-0.002-6.231-0.007-6.316-0.457-7.282-0.251-0.538-0.703-1.15-1.005-1.362-1.217-0.852-11.043-6.423-11.621-6.589-0.909-0.261-1.484-0.214-2.385 0.195zM18.755 6.183c2.429 1.397 4.349 2.609 4.265 2.695s-2.163 1.311-4.621 2.723l-4.469 2.569-0.783-0.47c0.719 0.328-0.772-0.543-2.268-1.406l-2.295-1.221c-2.079-1.187-3.783-2.204-3.786-2.259-0.012-0.211 8.738-5.164 9.129-5.168 0.227-0.002 2.399 1.139 4.828 2.537zM65.182 14.954v-8.435h3.259v16.87h-3.259v-8.435zM39.301 15.8v7.972h3.642v-6.135l1.63 0.015 3.755 6.121h1.92c1.483 0 1.887-0.055 1.777-0.24-2.346-3.944-3.015-5.007-3.687-6.068l1.662 2.81c-1.034-1.661-1.882-3.093-1.882-3.183s0.339-0.317 0.753-0.503c1.549-0.698 2.317-2.021 2.31-3.977-0.007-2.036-0.872-3.404-2.679-4.239-0.771-0.356-1.308-0.407-5.033-0.472l-4.169-0.073v7.972zM46.261 10.749c1.278 0.355 1.796 1.725 1.194 3.164-0.373 0.893-1.219 1.233-3.068 1.233h-1.444v-4.601l1.295 0.001c0.712 0.001 1.622 0.092 2.023 0.203zM24.495 22.35c-0.134 0.125-2.207 1.356-4.608 2.736l-4.364 2.508 0.051-5.397 0.051-5.398 9.010-5.219 0.051 5.271c0.040 4.059-0.004 5.323-0.191 5.498zM56.171 11.682c-1.122 0.363-2.073 0.99-2.815 1.811l-0.005 0.006c-1.975 2.243-1.865 6.367 0.227 8.458 1.23 1.229 2.614 1.679 4.893 1.587 1.577-0.063 1.961-0.149 2.855-0.638 1.068-0.584 1.814-1.482 2.121-2.551l0.174-0.607h-1.515c-1.473 0-1.523 0.015-1.799 0.547-0.381 0.739-1.217 1.053-2.512 0.945-0.831-0.068-1.18-0.204-1.629-0.636-0.477-0.457-0.948-1.472-0.952-2.051 0-0.077 1.876-0.163 4.169-0.192l4.17-0.052-0.024-1.346c-0.059-3.374-2.283-5.492-5.714-5.443-0.64 0.009-1.379 0.082-1.643 0.163zM88.619 11.906c0.957-0.473 2.525-0.534 3.48-0.135 0.353 0.147 0.883 0.571 1.178 0.941l0.538 0.673 0.35-0.445c1.008-1.283 3.782-1.846 5.292-1.074 1.817 0.927 2.023 1.616 2.112 7.066l0.073 4.457h-3.267l-0.062-4.106c-0.061-4.043-0.068-4.114-0.526-4.601-0.377-0.401-0.643-0.495-1.405-0.495-0.784 0-1.034 0.093-1.501 0.56l-0.56 0.56v8.081h-3.259l-0.005-3.498c-0.004-3.845-0.151-4.864-0.774-5.368-0.61-0.494-1.949-0.444-2.576 0.096-0.71 0.613-0.854 1.509-0.859 5.368l-0.004 3.402h-3.259v-11.694h3.259v1.755l0.48-0.57c0.264-0.314 0.846-0.752 1.294-0.974zM107.167 11.682c-1.061 0.324-2.103 1.002-2.857 1.857-1.052 1.196-1.432 2.506-1.325 4.563 0.136 2.579 1.315 4.254 3.606 5.117 0.867 0.327 1.377 0.385 2.876 0.324 1.576-0.063 1.96-0.149 2.855-0.638 1.067-0.584 1.814-1.482 2.12-2.551l0.175-0.607h-1.51c-1.469 0-1.518 0.015-1.844 0.567-0.445 0.754-1.188 1.033-2.469 0.927-1.184-0.099-1.877-0.585-2.323-1.631-0.528-1.241-0.681-1.192 3.907-1.249l4.169-0.052-0.023-1.346c-0.060-3.36-2.298-5.492-5.715-5.443-0.64 0.009-1.379 0.082-1.642 0.163zM70.55 15.877v-4.182h3.239l0.058 4.234 0.059 4.234 0.537 0.463c0.976 0.838 2.722 0.56 3.392-0.54 0.349-0.573 0.382-0.968 0.383-4.51l0.001-3.882h3.259v11.694h-3.259v-1.574l-0.559 0.599c-0.757 0.809-1.696 1.168-3.065 1.168-1.4 0-2.036-0.226-2.851-1.013-1.027-0.99-1.194-1.925-1.194-6.691zM59.544 14.202c0.403 0.334 0.845 1.224 0.845 1.7 0 0.377-0.107 0.393-2.575 0.393h-2.575l0.158-0.551c0.34-1.186 0.99-1.77 2.211-1.988 0.525-0.094 1.578 0.148 1.935 0.445zM110.54 14.202c0.403 0.334 0.844 1.224 0.844 1.7 0 0.377-0.106 0.393-2.601 0.393h-2.602l0.133-0.432c0.401-1.301 0.917-1.807 2.098-2.058 0.674-0.144 1.707 0.048 2.127 0.396z"></path>
</symbol>
<symbol id="icon-question_mark" viewBox="0 0 32 32">
<path d="M14.96 0.032c-0.616 0.050-1.642 0.194-2.221 0.314-6.178 1.267-11.122 6.211-12.395 12.394-0.248 1.205-0.31 1.87-0.31 3.261 0 1.389 0.064 2.053 0.312 3.261 1.163 5.678 5.453 10.363 11.034 12.048 1.582 0.478 2.843 0.658 4.621 0.658s3.038-0.179 4.621-0.658c5.131-1.597 9.091-5.557 10.657-10.574l0.031-0.114c0.478-1.582 0.658-2.843 0.658-4.621 0-1.394-0.064-2.046-0.315-3.28-0.872-4.262-3.592-8.099-7.366-10.394-1.802-1.11-3.928-1.886-6.204-2.185l-0.081-0.009c-0.619-0.082-2.496-0.144-3.040-0.101zM17.205 3.256c5.676 0.572 10.227 4.765 11.336 10.209l0.014 0.083c1.357 6.914-3.178 13.65-10.102 15.008-6.749 1.325-13.334-2.946-14.925-9.68-0.232-0.982-0.299-1.622-0.299-2.875s0.067-1.893 0.299-2.875c1.174-4.91 5.052-8.674 9.937-9.664l0.082-0.014c0.395-0.078 0.923-0.162 1.173-0.187 0.378-0.032 0.818-0.050 1.263-0.050 0.43 0 0.856 0.017 1.278 0.051l-0.056-0.004zM15.173 6.458c-1.142 0.169-2.157 0.61-3.010 1.255l0.016-0.012c-0.718 0.541-1.525 1.541-1.882 2.339-0.334 0.744-0.59 1.786-0.59 2.394v0.259h3.178l0.062-0.44c0.238-1.503 1.524-2.639 3.076-2.639 0.147 0 0.292 0.010 0.433 0.030l-0.016-0.002c1.286 0.189 2.387 1.258 2.602 2.53 0.192 1.138-0.157 1.699-2.002 3.216-1.261 1.038-1.902 1.824-2.296 2.816-0.251 0.632-0.344 1.152-0.344 1.928v0.669h3.19l0.019-0.627c0.016-0.571 0.032-0.654 0.178-0.944 0.198-0.395 0.685-0.894 1.608-1.646 1.218-0.994 2.069-1.979 2.448-2.84 0.074-0.165 0.198-0.509 0.275-0.762 0.13-0.421 0.141-0.538 0.139-1.341 0-0.774-0.018-0.942-0.139-1.398-0.331-1.245-0.786-2.056-1.638-2.926-0.843-0.888-1.946-1.521-3.188-1.776l-0.039-0.007c-0.474-0.102-1.594-0.142-2.080-0.075zM14.4 24v1.6h3.2v-3.2h-3.2v1.6z"></path>
</symbol>
<symbol id="icon-relume" viewBox="0 0 32 32">
<path d="M15.188 2.747c-0.216 0.058-0.402 0.129-0.579 0.215l0.019-0.008c-0.663 0.336-9.327 5.383-9.499 5.533-0.431 0.375-0.895 1.143-1.051 1.737-0.119 0.46-0.119 11.091 0.001 11.565 0.168 0.665 0.643 1.413 1.145 1.803 0.357 0.277 9.216 5.383 9.676 5.577 0.3 0.127 0.385 0.137 1.099 0.136 0.671-0.001 0.812-0.017 1.067-0.119 0.161-0.065 2.393-1.331 4.96-2.813 4.437-2.563 4.684-2.712 5.013-3.056 0.388-0.404 0.748-1.032 0.877-1.531 0.124-0.472 0.124-11.093 0.001-11.576-0.168-0.66-0.657-1.439-1.128-1.791-0.427-0.321-9.515-5.537-9.803-5.627-0.381-0.117-1.413-0.145-1.8-0.047zM20.053 7.565c2.127 1.228 3.864 2.253 3.861 2.28s-1.785 1.075-3.96 2.329l-3.955 2.283-3.955-2.283c-2.175-1.255-3.953-2.305-3.951-2.335 0.001-0.029 1.727-1.053 3.835-2.275 3.235-1.875 3.864-2.221 4.044-2.225 0.188-0.004 0.679 0.264 4.080 2.225zM25.333 16.659v4.499l-0.121 0.181c-0.097 0.145-0.887 0.624-3.96 2.404 0.097 0.002-1.17 0.741-2.444 1.47l-1.435 0.757c-0.023 0.003-0.040-2.065-0.040-4.596l0.001-4.6 3.985-2.305c-3.248 1.709-1.941 0.944-0.632 0.182l4.632-2.489c0.007-0.001 0.013 2.023 0.013 4.497z"></path>
</symbol>
<symbol id="icon-right_arrow" viewBox="0 0 32 32">
<path d="M15.96 8.013l-0.92 0.92 5.733 5.733h-12.773v2.667h12.773l-5.707 5.707 1.893 1.893 8.933-8.933-4.453-4.453c-2.449-2.449-4.477-4.453-4.507-4.453s-0.468 0.413-0.973 0.92z"></path>
</symbol>
<symbol id="icon-instagram" viewBox="0 0 32 32">
<path d="M16 5.342c3.473 0 3.885 0.015 5.251 0.076 1.269 0.056 1.955 0.269 2.412 0.447 0.604 0.234 1.041 0.518 1.493 0.97 0.457 0.457 0.736 0.889 0.975 1.493 0.178 0.457 0.391 1.148 0.447 2.412 0.061 1.371 0.076 1.782 0.076 5.251s-0.015 3.885-0.076 5.251c-0.056 1.269-0.269 1.955-0.447 2.412-0.234 0.604-0.518 1.041-0.97 1.493-0.457 0.457-0.889 0.736-1.493 0.975-0.457 0.178-1.148 0.391-2.412 0.447-1.371 0.061-1.782 0.076-5.251 0.076s-3.885-0.015-5.251-0.076c-1.269-0.056-1.955-0.269-2.412-0.447-0.604-0.234-1.041-0.518-1.493-0.97-0.457-0.457-0.736-0.889-0.975-1.493-0.178-0.457-0.391-1.148-0.447-2.412-0.061-1.371-0.076-1.782-0.076-5.251s0.015-3.885 0.076-5.251c0.056-1.269 0.269-1.955 0.447-2.412 0.234-0.604 0.518-1.041 0.97-1.493 0.457-0.457 0.889-0.736 1.493-0.975 0.457-0.178 1.148-0.391 2.412-0.447 1.366-0.061 1.777-0.076 5.251-0.076zM16 3.001c-3.529 0-3.971 0.015-5.357 0.076-1.381 0.061-2.331 0.284-3.153 0.604-0.858 0.335-1.584 0.777-2.305 1.503-0.726 0.721-1.168 1.447-1.503 2.3-0.32 0.828-0.543 1.772-0.604 3.153-0.061 1.391-0.076 1.833-0.076 5.362s0.015 3.971 0.076 5.357c0.061 1.381 0.284 2.331 0.604 3.153 0.335 0.858 0.777 1.584 1.503 2.305 0.721 0.721 1.447 1.168 2.3 1.498 0.828 0.32 1.772 0.543 3.153 0.604 1.386 0.061 1.828 0.076 5.357 0.076s3.971-0.015 5.357-0.076c1.381-0.061 2.331-0.284 3.153-0.604 0.853-0.33 1.579-0.777 2.3-1.498s1.168-1.447 1.498-2.3c0.32-0.828 0.543-1.772 0.604-3.153 0.061-1.386 0.076-1.828 0.076-5.357s-0.015-3.971-0.076-5.357c-0.061-1.381-0.284-2.331-0.604-3.153-0.32-0.863-0.762-1.589-1.488-2.31-0.721-0.721-1.447-1.168-2.3-1.498-0.828-0.32-1.772-0.543-3.153-0.604-1.391-0.066-1.833-0.081-5.362-0.081v0z"></path>
<path d="M16 9.323c-3.687 0-6.677 2.991-6.677 6.677s2.991 6.677 6.677 6.677 6.677-2.991 6.677-6.677c0-3.687-2.991-6.677-6.677-6.677zM16 20.331c-2.392 0-4.331-1.94-4.331-4.331s1.94-4.331 4.331-4.331c2.392 0 4.331 1.94 4.331 4.331s-1.94 4.331-4.331 4.331z"></path>
<path d="M24.5 9.059c0 0.861-0.698 1.559-1.559 1.559s-1.559-0.698-1.559-1.559c0-0.861 0.698-1.559 1.559-1.559s1.559 0.698 1.559 1.559z"></path>
</symbol>
<symbol id="icon-linkedin" viewBox="0 0 32 32">
<path d="M25.75 4h-19.5c-1.237 0-2.25 1.013-2.25 2.25v19.5c0 1.238 1.013 2.25 2.25 2.25h19.5c1.238 0 2.25-1.012 2.25-2.25v-19.5c0-1.237-1.012-2.25-2.25-2.25zM13 23.5h-3v-10.5h3v10.5zM11.5 11.5c-0.83 0-1.5-0.67-1.5-1.5s0.67-1.5 1.5-1.5c0.83 0 1.5 0.67 1.5 1.5s-0.67 1.5-1.5 1.5zM23.5 23.5h-3v-6c0-0.83-0.67-1.5-1.5-1.5s-1.5 0.67-1.5 1.5v6h-3v-10.5h3v1.861c0.619-0.848 1.566-1.861 2.625-1.861 1.866 0 3.375 1.678 3.375 3.75v6.75z"></path>
</symbol>
</defs>
</svg>
